<?xml version="1.0" standalone="no"?>
<!DOCTYPE svg PUBLIC "-//W3C//DTD SVG 20010904//EN"
 "http://www.w3.org/TR/2001/REC-SVG-20010904/DTD/svg10.dtd">
<svg version="1.0" xmlns="http://www.w3.org/2000/svg"
 width="16.000000pt" height="16.000000pt" viewBox="0 0 16.000000 16.000000"
 preserveAspectRatio="xMidYMid meet">
<metadata>
Created by potrace 1.11, written by Peter Selinger 2001-2013
</metadata>
<g transform="translate(0.000000,16.000000) scale(0.003279,-0.003279)"
fill="#000000" stroke="none">
<path d="M47 3515 c-33 -11 -45 -30 -25 -38 8 -2 76 -45 153 -95 77 -50 194
-126 260 -168 296 -191 440 -288 443 -295 2 -5 8 -9 12 -9 5 0 49 -26 97 -57
48 -32 96 -62 106 -68 88 -50 350 -225 411 -275 89 -73 91 -76 74 -103 -9 -13
-41 -38 -70 -54 -29 -17 -192 -121 -363 -233 -171 -111 -370 -241 -443 -288
-73 -48 -230 -151 -350 -230 -119 -78 -237 -153 -263 -166 -42 -23 -76 -67
-64 -85 5 -9 2641 -6 2705 2 19 3 62 8 95 12 33 4 128 20 210 37 295 58 551
163 790 324 270 181 410 274 553 363 155 97 289 190 362 251 23 19 62 47 88
61 25 14 47 30 49 36 5 13 -71 66 -282 197 -77 49 -162 102 -190 120 -68 42
-407 271 -529 356 -231 160 -540 290 -836 349 -95 19 -104 21 -135 25 -16 2
-50 7 -75 10 -169 24 -332 27 -1574 29 -764 1 -1190 -2 -1209 -8z m1428 -219
c100 -10 219 -42 300 -81 39 -19 139 -86 223 -149 139 -105 408 -291 479 -331
34 -19 37 -21 279 -174 l195 -124 -213 -141 c-117 -78 -407 -269 -643 -425
-237 -157 -448 -291 -470 -299 -60 -22 -653 -24 -665 -2 -12 22 6 47 50 70 21
11 123 75 227 143 550 360 791 516 819 530 17 9 42 28 55 42 31 34 39 41 71
65 34 26 28 43 -26 68 -23 11 -161 98 -306 194 -262 172 -556 364 -587 383
-62 38 -343 227 -347 233 -5 9 462 8 559 -2z m1225 -1 c118 -11 260 -41 350
-76 103 -39 195 -91 365 -209 94 -65 324 -220 513 -344 188 -125 342 -230 342
-234 0 -4 -28 -25 -63 -47 -34 -23 -224 -149 -422 -282 -444 -298 -664 -434
-764 -472 -166 -64 -339 -82 -695 -71 -79 3 -79 3 -55 21 30 24 335 227 454
303 408 261 748 494 787 537 24 28 11 57 -36 78 -22 10 -160 97 -306 192 -307
202 -421 276 -655 427 -169 109 -225 151 -225 171 0 17 257 21 410 6z"/>
</g>
</svg>
